HIERARCHY
ROOT Hips
{
	OFFSET 0.000000 8.830580 0.000000
	CHANNELS 6 Xposition Yposition Zposition Zrotation Yrotation Xrotation 
	JOINT Spine
	{
		OFFSET 0.000000 0.010000 0.000000
		CHANNELS 3 Zrotation Yrotation Xrotation
		JOINT Spine1
		{
			OFFSET 0.000000 2.459130 0.000000
			CHANNELS 3 Zrotation Yrotation Xrotation
			JOINT Neck
			{
				OFFSET 0.000000 2.484630 0.000000
				CHANNELS 3 Zrotation Yrotation Xrotation
				JOINT Head_virtual
				{
					OFFSET 0.000000 0.000000 0.000000
					CHANNELS 3 Zrotation Yrotation Xrotation
					JOINT Head
					{
						OFFSET 0.000000 0.927525 0.000000
						CHANNELS 3 Zrotation Yrotation Xrotation
						End Site
						{
							OFFSET 0.000000 0.000000 0.000000
						}
					}
				}
				JOINT LeftUpArm_virtual
				{
					OFFSET 0.000000 0.000000 0.000000
					CHANNELS 3 Zrotation Yrotation Xrotation
					JOINT LeftUpArm
					{
						OFFSET 1.248820 0.000000 0.000000
						CHANNELS 3 Zrotation Yrotation Xrotation
						JOINT LeftForeArm
						{
							OFFSET 2.597580 0.000000 0.000000
							CHANNELS 3 Zrotation Yrotation Xrotation
							JOINT LeftHand
							{
								OFFSET 2.455420 0.000000 0.000000
								CHANNELS 3 Zrotation Yrotation Xrotation
								End Site
								{
									OFFSET 0.000000 0.000000 0.000000
								}
							}
						}
					}
				}
				JOINT RightUpArm_virtual
				{
					OFFSET -0.000000 -0.000000 -0.000000
					CHANNELS 3 Zrotation Yrotation Xrotation
					JOINT RightUpArm
					{
						OFFSET -1.248820 -0.000000 -0.000000
						CHANNELS 3 Zrotation Yrotation Xrotation
						JOINT RightForeArm
						{
							OFFSET -2.597580 -0.000000 -0.000000
							CHANNELS 3 Zrotation Yrotation Xrotation
							JOINT RightHand
							{
								OFFSET -2.455420 -0.000000 -0.000000
								CHANNELS 3 Zrotation Yrotation Xrotation
								End Site
								{
									OFFSET 0.000000 0.000000 0.000000
								}
							}
						}
					}
				}
			}
		}
	}
	JOINT LeftUpLeg
	{
		OFFSET 1.271939 0.000000 0.000000
		CHANNELS 3 Zrotation Yrotation Xrotation
		JOINT LeftLowLeg
		{
			OFFSET 0.000000 -4.342910 0.000000
			CHANNELS 3 Zrotation Yrotation Xrotation
			JOINT LeftFoot
			{
				OFFSET 0.000000 -4.487670 0.000000
				CHANNELS 3 Zrotation Yrotation Xrotation
				JOINT LeftToeBase
				{
					OFFSET 0.000000 0.000000 1.515070
					CHANNELS 3 Zrotation Yrotation Xrotation
					End Site
					{
						OFFSET 0.000000 0.000000 0.000000
					}
				}
			}
		}
	}
	JOINT RightUpLeg
	{
		OFFSET -1.271939 0.000000 0.000000
		CHANNELS 3 Zrotation Yrotation Xrotation
		JOINT RightLowLeg
		{
			OFFSET 0.000000 -4.342910 0.000000
			CHANNELS 3 Zrotation Yrotation Xrotation
			JOINT RightFoot
			{
				OFFSET 0.000000 -4.487670 0.000000
				CHANNELS 3 Zrotation Yrotation Xrotation
				JOINT RightToeBase
				{
					OFFSET 0.000000 0.000000 1.515070
					CHANNELS 3 Zrotation Yrotation Xrotation
					End Site
					{
						OFFSET 0.000000 0.000000 0.000000
					}
				}
			}
		}
	}
}
MOTION
Frames: 16
Frame Time: 0.041667
-18.480744 9.149601 45.165141 -174.593123 6.647420 -172.929184 2.001372 0.488155 -8.565813 5.250617 0.764929 -8.923542 0.000000 0.000000 0.000000 -20.844818 9.321987 18.704175 5.995585 22.687612 -86.227953 -24.752800 9.566850 -9.720300 14.945200 -13.223000 -23.860701 0.000000 -7.329170 0.000000 24.305500 12.949200 32.834202 20.768200 -6.560870 -5.196610 -10.338600 9.218240 -41.666401 0.000000 18.708300 0.000000 -23.774099 -15.597300 50.827999 7.782060 0.821620 -4.914157 0.000000 0.000000 5.665440 -16.000249 11.967103 1.611124 0.000000 0.000000 -34.365200 3.725191 3.764469 -5.323639 0.000000 0.000000 8.045580 13.406433 -16.894186 4.815272 0.000000 0.000000 -38.602800 
-18.480116 9.149703 45.165967 -174.590637 6.638366 -172.958010 1.995953 0.479554 -8.549981 5.242399 0.756050 -8.894881 0.000000 0.000000 0.000000 -20.720815 9.096639 18.809741 6.279316 22.640858 -86.083095 -24.771700 9.577010 -9.719520 15.006400 -13.214900 -23.905199 0.000000 -7.276450 0.000000 24.413300 12.988700 32.861698 20.759001 -6.532830 -5.229310 -10.396700 9.202840 -41.556099 0.000000 18.653400 0.000000 -23.886499 -15.637900 50.820000 7.789696 0.813327 -4.902785 0.000000 0.000000 5.684530 -16.019678 11.959532 1.606683 0.000000 0.000000 -34.351999 3.732850 3.796100 -5.304772 0.000000 0.000000 8.059920 13.415324 -16.926818 4.805651 0.000000 0.000000 -38.584600 
-18.479581 9.149778 45.166991 -174.597325 6.618276 -172.972551 1.987752 0.478036 -8.551080 5.212349 0.753992 -8.843802 0.000000 0.000000 0.000000 -20.368002 8.280310 18.924804 6.360944 22.465772 -86.037587 -24.761499 9.594430 -9.737660 15.014400 -13.244800 -23.953300 0.000000 -7.235120 0.000000 24.575399 12.966900 32.882099 20.750000 -6.511900 -5.249680 -10.417100 9.144580 -41.559200 0.000000 18.647100 0.000000 -23.923300 -15.633700 50.825901 7.786822 0.804510 -4.913375 0.000000 0.000000 5.707140 -16.004716 11.962768 1.617641 0.000000 0.000000 -34.351700 3.729763 3.795729 -5.305090 0.000000 0.000000 8.078110 13.443876 -16.925243 4.791914 0.000000 0.000000 -38.570101 
-18.479102 9.149874 45.168616 -174.599639 6.564260 -172.995352 1.983856 0.463765 -8.530822 5.176412 0.739426 -8.810009 0.000000 0.000000 0.000000 -19.943064 7.304076 19.199794 6.541648 22.292084 -85.971427 -24.766800 9.632130 -9.702070 15.056600 -13.296400 -24.034000 0.000000 -7.206570 0.000000 24.598801 12.971700 32.767601 20.738800 -6.505060 -5.234620 -10.416200 9.089900 -41.687901 0.000000 18.635099 0.000000 -23.914301 -15.567200 50.851101 7.795542 0.759288 -4.934174 0.000000 0.000000 5.741720 -15.994898 11.957719 1.626605 0.000000 0.000000 -34.377001 3.736076 3.780565 -5.300007 0.000000 0.000000 8.100110 13.450836 -16.951135 4.780549 0.000000 0.000000 -38.583000 
-18.478706 9.149911 45.170006 -174.596531 6.524869 -173.016028 1.976319 0.463338 -8.516340 5.154184 0.740232 -8.794349 0.000000 0.000000 0.000000 -19.451200 6.172916 19.590413 6.908359 22.085982 -85.794627 -24.765499 9.628920 -9.697610 15.065900 -13.308500 -24.056400 0.000000 -7.242780 0.000000 24.511000 13.006400 32.785301 20.705900 -6.512080 -5.224050 -10.397000 9.056900 -41.803699 0.000000 18.633600 0.000000 -23.874001 -15.668300 50.727402 7.805674 0.750146 -4.945315 0.000000 0.000000 5.767720 -16.010675 11.920105 1.631285 0.000000 0.000000 -34.364901 3.745833 3.785735 -5.294816 0.000000 0.000000 8.121370 13.456327 -16.980307 4.769580 0.000000 0.000000 -38.575701 
-18.478528 9.149923 45.170880 -174.597573 6.513033 -173.045826 1.962214 0.480099 -8.498350 5.138160 0.761316 -8.809944 0.000000 0.000000 0.000000 -18.961279 4.973948 20.095389 7.580157 21.827283 -85.519355 -24.757900 9.606650 -9.642310 15.071200 -13.296900 -24.054300 0.000000 -7.278200 0.000000 24.412701 13.004200 32.882099 20.676100 -6.502810 -5.186950 -10.414400 9.020510 -41.804798 0.000000 18.553699 0.000000 -23.935101 -15.700400 50.808701 7.804307 0.790501 -4.926990 0.000000 0.000000 5.769130 -16.018970 11.877938 1.645748 0.000000 0.000000 -34.385900 3.747567 3.783959 -5.282348 0.000000 0.000000 8.147310 13.474269 -16.977927 4.756131 0.000000 0.000000 -38.581301 
-18.478311 9.150042 45.172548 -174.597972 6.477236 -173.076933 1.946536 0.475000 -8.469963 5.113510 0.759000 -8.788527 0.000000 0.000000 0.000000 -18.198597 3.294444 20.505890 7.953187 21.569044 -85.256312 -24.760000 9.653340 -9.647560 15.076400 -13.369500 -24.047600 0.000000 -7.285320 0.000000 24.417101 12.924100 32.880100 20.663000 -6.535360 -5.248260 -10.392400 9.062980 -41.843800 0.000000 18.521799 0.000000 -23.917101 -15.728800 50.979801 7.807669 0.793492 -4.923443 0.000000 0.000000 5.780420 -16.005973 11.849841 1.664175 0.000000 0.000000 -34.371901 3.752776 3.776297 -5.279766 0.000000 0.000000 8.187320 13.494726 -16.990606 4.742647 0.000000 0.000000 -38.586000 
-18.478433 9.150178 45.174609 -174.602330 6.425980 -173.117953 1.932068 0.450959 -8.424943 5.089577 0.738870 -8.790357 0.000000 0.000000 0.000000 -17.567988 1.838960 20.987555 8.545686 21.333026 -84.992656 -24.780199 9.676720 -9.590630 15.120900 -13.377600 -24.059900 0.000000 -7.312140 0.000000 24.446100 12.942600 32.791698 20.650600 -6.540890 -5.269490 -10.372100 9.091720 -41.882500 0.000000 18.517401 0.000000 -23.845900 -15.764600 51.094200 7.810248 0.751133 -4.923384 0.000000 0.000000 5.805620 -15.975617 11.846118 1.685405 0.000000 0.000000 -34.369101 3.755182 3.737800 -5.269621 0.000000 0.000000 8.226490 13.498269 -16.993554 4.735923 0.000000 0.000000 -38.592699 
-18.478452 9.150123 45.176238 -174.601539 6.400271 -173.153826 1.914581 0.430258 -8.388828 5.081542 0.722446 -8.793085 0.000000 0.000000 0.000000 -16.898610 0.321186 21.488141 9.019764 21.144062 -84.771675 -24.773600 9.703400 -9.598080 15.109800 -13.357600 -23.930700 0.000000 -7.356500 0.000000 24.429600 12.893200 32.731899 20.629999 -6.525600 -5.257000 -10.347700 9.124180 -41.929401 0.000000 18.509501 0.000000 -23.780199 -15.743000 51.030899 7.814759 0.753353 -4.910415 0.000000 0.000000 5.814640 -15.982756 11.814838 1.700843 0.000000 0.000000 -34.419399 3.759849 3.758885 -5.262553 0.000000 0.000000 8.266030 13.519881 -17.025786 4.713307 0.000000 0.000000 -38.602699 
-18.478708 9.150084 45.177751 -174.596914 6.396095 -173.181789 1.898231 0.411867 -8.371468 5.085523 0.705824 -8.761360 0.000000 0.000000 0.000000 -16.331945 -1.005799 21.935607 9.496647 20.970266 -84.574915 -24.745600 9.744100 -9.711650 15.024200 -13.352800 -23.765100 0.000000 -7.420640 0.000000 24.413500 12.844500 32.732300 20.604500 -6.532750 -5.320030 -10.298700 9.217550 -41.869900 0.000000 18.515499 0.000000 -23.788900 -15.704000 50.914501 7.819863 0.754820 -4.896816 0.000000 0.000000 5.822020 -15.985917 11.802653 1.699337 0.000000 0.000000 -34.401501 3.765269 3.763461 -5.256647 0.000000 0.000000 8.290600 13.531718 -17.032513 4.711384 0.000000 0.000000 -38.655399 
-18.479005 9.150174 45.179998 -174.596971 6.360494 -173.218736 1.875580 0.373593 -8.341869 5.095237 0.671919 -8.751416 0.000000 0.000000 0.000000 -15.757024 -2.365924 22.329625 9.855562 20.799284 -84.399857 -24.746500 9.753490 -9.712800 15.003100 -13.303500 -23.742800 0.000000 -7.441340 0.000000 24.326700 12.815400 32.635200 20.609800 -6.495850 -5.297610 -10.292700 9.247900 -41.905201 0.000000 18.562000 0.000000 -23.756300 -15.671300 50.878399 7.824806 0.712316 -4.900700 0.000000 0.000000 5.853870 -15.986824 11.803433 1.702612 0.000000 0.000000 -34.422600 3.771452 3.693456 -5.254715 0.000000 0.000000 8.334600 13.525381 -17.003662 4.708355 0.000000 0.000000 -38.599400 
-18.479546 9.150146 45.181724 -174.597417 6.361423 -173.243564 1.854913 0.352453 -8.323899 5.109645 0.655611 -8.760198 0.000000 0.000000 0.000000 -15.302936 -3.506950 22.670506 10.371091 20.633447 -84.302936 -24.724001 9.746420 -9.650970 14.961600 -13.224700 -23.802999 0.000000 -7.440740 0.000000 24.206699 12.786900 32.469398 20.599800 -6.422530 -5.189090 -10.311700 9.213740 -41.828800 0.000000 18.587299 0.000000 -23.687099 -15.599200 50.868401 7.823100 0.686570 -4.895942 0.000000 0.000000 5.870360 -15.969717 11.828237 1.700109 0.000000 0.000000 -34.408300 3.769392 3.686654 -5.259875 0.000000 0.000000 8.370070 13.529356 -16.993775 4.709048 0.000000 0.000000 -38.610300 
-18.480184 9.150325 45.183543 -174.599575 6.380913 -173.280857 1.845446 0.345817 -8.295952 5.107102 0.647559 -8.699150 0.000000 0.000000 0.000000 -14.906607 -4.430056 22.976526 10.684532 20.546737 -84.180641 -24.716900 9.780940 -9.664100 14.908600 -13.207100 -23.880400 0.000000 -7.443440 0.000000 24.105000 12.739300 32.638599 20.589500 -6.412540 -5.161570 -10.300700 9.246420 -41.736000 0.000000 18.655800 0.000000 -23.540899 -15.667500 50.778599 7.816381 0.694377 -4.873869 0.000000 0.000000 5.886060 -15.975196 11.830224 1.702369 0.000000 0.000000 -34.400801 3.763972 3.690170 -5.254585 0.000000 0.000000 8.403830 13.521848 -16.982995 4.718085 0.000000 0.000000 -38.636999 
-18.480990 9.150440 45.185356 -174.597783 6.403316 -173.321519 1.843666 0.350997 -8.251946 5.100287 0.650802 -8.657683 0.000000 0.000000 0.000000 -14.607402 -5.140326 23.262123 10.982768 20.468931 -84.023146 -24.717800 9.822760 -9.762730 14.839000 -13.263100 -23.802401 0.000000 -7.379000 0.000000 24.044600 12.654200 32.557598 20.559900 -6.452200 -5.217980 -10.229700 9.328480 -41.599300 0.000000 18.705601 0.000000 -23.435200 -15.633400 50.548698 7.813153 0.693679 -4.847506 0.000000 0.000000 5.901880 -15.972977 11.848551 1.696456 0.000000 0.000000 -34.404200 3.762780 3.663902 -5.242365 0.000000 0.000000 8.431100 13.520883 -16.945308 4.730834 0.000000 0.000000 -38.624300 
-18.481769 9.150460 45.186878 -174.600756 6.424413 -173.347199 1.842999 0.359929 -8.219484 5.088862 0.659396 -8.646367 0.000000 0.000000 0.000000 -14.408475 -5.640128 23.459610 11.104532 20.425776 -83.972305 -24.729200 9.802160 -9.704430 14.830700 -13.209700 -23.948999 0.000000 -7.404010 0.000000 23.950600 12.742000 32.433498 20.543501 -6.452530 -5.212400 -10.182800 9.333350 -41.519600 0.000000 18.747700 0.000000 -23.345600 -15.578900 50.333599 7.806182 0.687132 -4.831388 0.000000 0.000000 5.910930 -15.969220 11.866828 1.699021 0.000000 0.000000 -34.427099 3.754808 3.646437 -5.242072 0.000000 0.000000 8.456490 13.541141 -16.903127 4.735209 0.000000 0.000000 -38.684900 
-18.482793 9.150420 45.188734 -174.598618 6.444589 -173.382099 1.843647 0.367871 -8.198861 5.087207 0.665308 -8.614035 0.000000 0.000000 0.000000 -14.200385 -6.199058 23.696314 11.319786 20.331177 -83.821006 -24.727301 9.748630 -9.683580 14.756700 -13.134600 -24.010200 0.000000 -7.410840 0.000000 24.002899 12.726300 32.530499 20.535200 -6.387250 -5.136960 -10.144800 9.250820 -41.488899 0.000000 18.783600 0.000000 -23.278999 -15.385700 50.123402 7.801284 0.711705 -4.817082 0.000000 0.000000 5.936860 -15.963090 11.852762 1.694336 0.000000 0.000000 -34.398899 3.751843 3.630235 -5.235004 0.000000 0.000000 8.481440 13.515673 -16.885107 4.751272 0.000000 0.000000 -38.647400 
